<svg xmlns="http://www.w3.org/2000/svg" width="260" height="260" viewBox="0 0 260 260" font-family="DejaVu Sans, Arial, sans-serif">
<defs><linearGradient id="tile" x1="0" y1="0" x2="1" y2="1"><stop offset="0" stop-color="#454545"/><stop offset="1" stop-color="#8C8C8C"/></linearGradient></defs>
<rect x="30.0" y="30.0" width="200.0" height="200.0" rx="46.0" ry="46.0" fill="url(#tile)"/>
<g stroke="#FFFFFF" stroke-width="9.0" stroke-linecap="round" stroke-linejoin="round" fill="none" opacity="0.96">
<line x1="96.00" y1="130.00" x2="96.00" y2="164.00"/>
<line x1="164.00" y1="164.00" x2="164.00" y2="198.00"/>
<line x1="62.00" y1="96.00" x2="96.00" y2="96.00"/>
<line x1="96.00" y1="96.00" x2="130.00" y2="96.00"/>
<line x1="130.00" y1="96.00" x2="164.00" y2="96.00"/>
<line x1="96.00" y1="130.00" x2="130.00" y2="130.00"/>
<line x1="130.00" y1="130.00" x2="164.00" y2="130.00"/>
<line x1="164.00" y1="130.00" x2="198.00" y2="130.00"/>
<line x1="96.00" y1="164.00" x2="130.00" y2="164.00"/>
<line x1="62.00" y1="198.00" x2="96.00" y2="198.00"/>
<line x1="96.00" y1="62.00" x2="130.00" y2="62.00"/>
<line x1="96.00" y1="198.00" x2="130.00" y2="198.00"/>
<line x1="130.00" y1="62.00" x2="164.00" y2="62.00"/>
<line x1="130.00" y1="198.00" x2="164.00" y2="198.00"/>
<line x1="164.00" y1="62.00" x2="198.00" y2="62.00"/>
<line x1="62.00" y1="62.00" x2="62.00" y2="96.00"/>
<line x1="198.00" y1="62.00" x2="198.00" y2="96.00"/>
<line x1="62.00" y1="96.00" x2="62.00" y2="130.00"/>
<line x1="198.00" y1="96.00" x2="198.00" y2="130.00"/>
<line x1="62.00" y1="130.00" x2="62.00" y2="164.00"/>
<line x1="198.00" y1="130.00" x2="198.00" y2="164.00"/>
<line x1="62.00" y1="164.00" x2="62.00" y2="198.00"/>
<line x1="198.00" y1="164.00" x2="198.00" y2="198.00"/>
</g>
<polyline points="79.00,47.72 79.00,79.00 113.00,79.00 147.00,79.00 181.00,79.00 181.00,113.00 147.00,113.00 113.00,113.00 79.00,113.00 79.00,147.00 79.00,181.00 113.00,181.00 147.00,181.00 147.00,147.00 181.00,147.00 181.00,181.00 181.00,202.08" fill="none" stroke="#1C1C1C" stroke-width="12.0" stroke-linecap="round" stroke-linejoin="round"/>
<circle cx="79.00" cy="47.72" r="7.5" fill="#FFFFFF" stroke="#1C1C1C" stroke-width="3"/>
<path d="M181.00,202.00 L184.17,210.63 L193.36,210.98 L186.14,216.67 L188.64,225.52 L181.00,220.40 L173.36,225.52 L175.86,216.67 L168.64,210.98 L177.83,210.63 Z" fill="#1C1C1C" stroke="#FFFFFF" stroke-width="2.4" stroke-linejoin="round"/>
</svg>