<svg xmlns="http://www.w3.org/2000/svg" width="1010" height="260" viewBox="0 0 1010 260" font-family="DejaVu Sans, Arial, sans-serif">
<defs><linearGradient id="tile" x1="0" y1="0" x2="1" y2="1"><stop offset="0" stop-color="#454545"/><stop offset="1" stop-color="#8C8C8C"/></linearGradient></defs>
<rect x="30.0" y="30.0" width="200.0" height="200.0" rx="46.0" ry="46.0" fill="url(#tile)"/>
<g stroke="#FFFFFF" stroke-width="9.0" stroke-linecap="round" stroke-linejoin="round" fill="none" opacity="0.96">
<line x1="96.00" y1="130.00" x2="96.00" y2="164.00"/>
<line x1="164.00" y1="164.00" x2="164.00" y2="198.00"/>
<line x1="62.00" y1="96.00" x2="96.00" y2="96.00"/>
<line x1="96.00" y1="96.00" x2="130.00" y2="96.00"/>
<line x1="130.00" y1="96.00" x2="164.00" y2="96.00"/>
<line x1="96.00" y1="130.00" x2="130.00" y2="130.00"/>
<line x1="130.00" y1="130.00" x2="164.00" y2="130.00"/>
<line x1="164.00" y1="130.00" x2="198.00" y2="130.00"/>
<line x1="96.00" y1="164.00" x2="130.00" y2="164.00"/>
<line x1="62.00" y1="198.00" x2="96.00" y2="198.00"/>
<line x1="96.00" y1="62.00" x2="130.00" y2="62.00"/>
<line x1="96.00" y1="198.00" x2="130.00" y2="198.00"/>
<line x1="130.00" y1="62.00" x2="164.00" y2="62.00"/>
<line x1="130.00" y1="198.00" x2="164.00" y2="198.00"/>
<line x1="164.00" y1="62.00" x2="198.00" y2="62.00"/>
<line x1="62.00" y1="62.00" x2="62.00" y2="96.00"/>
<line x1="198.00" y1="62.00" x2="198.00" y2="96.00"/>
<line x1="62.00" y1="96.00" x2="62.00" y2="130.00"/>
<line x1="198.00" y1="96.00" x2="198.00" y2="130.00"/>
<line x1="62.00" y1="130.00" x2="62.00" y2="164.00"/>
<line x1="198.00" y1="130.00" x2="198.00" y2="164.00"/>
<line x1="62.00" y1="164.00" x2="62.00" y2="198.00"/>
<line x1="198.00" y1="164.00" x2="198.00" y2="198.00"/>
</g>
<polyline points="79.00,47.72 79.00,79.00 113.00,79.00 147.00,79.00 181.00,79.00 181.00,113.00 147.00,113.00 113.00,113.00 79.00,113.00 79.00,147.00 79.00,181.00 113.00,181.00 147.00,181.00 147.00,147.00 181.00,147.00 181.00,181.00 181.00,202.08" fill="none" stroke="#1C1C1C" stroke-width="12.0" stroke-linecap="round" stroke-linejoin="round"/>
<circle cx="79.00" cy="47.72" r="7.5" fill="#FFFFFF" stroke="#1C1C1C" stroke-width="3"/>
<path d="M181.00,202.00 L184.17,210.63 L193.36,210.98 L186.14,216.67 L188.64,225.52 L181.00,220.40 L173.36,225.52 L175.86,216.67 L168.64,210.98 L177.83,210.63 Z" fill="#1C1C1C" stroke="#FFFFFF" stroke-width="2.4" stroke-linejoin="round"/>
<path d="M275.76,82.43 L306.38,82.43 L327.62,132.37 L349.00,82.43 L379.56,82.43 L379.56,175.75 L356.82,175.75 L356.82,107.49 L335.32,157.81 L320.06,157.81 L298.56,107.49 L298.56,175.75 L275.76,175.75 L275.76,82.43 Z M433.50,144.25 Q426.50,144.25 422.96,146.63 Q419.44,148.99 419.44,153.63 Q419.44,157.87 422.27,160.29 Q425.13,162.69 430.19,162.69 Q436.50,162.69 440.81,158.17 Q445.13,153.63 445.13,146.81 L445.13,144.25 L433.50,144.25 Z M467.69,135.81 L467.69,175.75 L445.13,175.75 L445.13,165.37 Q440.63,171.75 435.00,174.67 Q429.38,177.57 421.31,177.57 Q410.44,177.57 403.65,171.23 Q396.88,164.87 396.88,154.75 Q396.88,142.43 405.34,136.69 Q413.81,130.93 431.94,130.93 L445.13,130.93 L445.13,129.19 Q445.13,123.87 440.94,121.41 Q436.75,118.93 427.88,118.93 Q420.69,118.93 414.50,120.37 Q408.31,121.81 403.00,124.69 L403.00,107.63 Q410.19,105.87 417.44,104.97 Q424.69,104.07 431.94,104.07 Q450.88,104.07 459.27,111.53 Q467.69,118.99 467.69,135.81 Z M485.07,105.75 L546.13,105.75 L546.13,121.37 L509.25,159.75 L546.13,159.75 L546.13,175.75 L483.51,175.75 L483.51,160.13 L520.37,121.75 L485.07,121.75 L485.07,105.75 Z M632.87,140.57 L632.87,146.93 L580.57,146.93 Q581.37,154.81 586.25,158.75 Q591.13,162.69 599.87,162.69 Q606.93,162.69 614.33,160.59 Q621.75,158.49 629.57,154.25 L629.57,171.49 Q621.63,174.49 613.69,176.03 Q605.75,177.57 597.81,177.57 Q578.81,177.57 568.27,167.91 Q557.75,158.25 557.75,140.81 Q557.75,123.69 568.09,113.89 Q578.43,104.07 596.57,104.07 Q613.07,104.07 622.97,114.01 Q632.87,123.93 632.87,140.57 Z M609.87,133.13 Q609.87,126.75 606.15,122.85 Q602.43,118.93 596.43,118.93 Q589.93,118.93 585.87,122.59 Q581.81,126.25 580.81,133.13 L609.87,133.13 Z" fill="#262626" fill-rule="nonzero"/>
<path d="M685.87,124.81 Q682.93,123.43 680.01,122.79 Q677.11,122.13 674.17,122.13 Q665.55,122.13 660.89,127.67 Q656.23,133.19 656.23,143.49 L656.23,175.75 L633.87,175.75 L633.87,105.75 L656.23,105.75 L656.23,117.25 Q660.55,110.37 666.13,107.23 Q671.73,104.07 679.55,104.07 Q680.67,104.07 681.97,104.17 Q683.29,104.25 685.79,104.57 L685.87,124.81 Z M728.36,144.25 Q721.36,144.25 717.82,146.63 Q714.30,148.99 714.30,153.63 Q714.30,157.87 717.13,160.29 Q720.00,162.69 725.06,162.69 Q731.36,162.69 735.67,158.17 Q740.00,153.63 740.00,146.81 L740.00,144.25 L728.36,144.25 Z M762.56,135.81 L762.56,175.75 L740.00,175.75 L740.00,165.37 Q735.50,171.75 729.86,174.67 Q724.24,177.57 716.17,177.57 Q705.30,177.57 698.51,171.23 Q691.74,164.87 691.74,154.75 Q691.74,142.43 700.20,136.69 Q708.67,130.93 726.80,130.93 L740.00,130.93 L740.00,129.19 Q740.00,123.87 735.80,121.41 Q731.62,118.93 722.74,118.93 Q715.56,118.93 709.36,120.37 Q703.17,121.81 697.86,124.69 L697.86,107.63 Q705.06,105.87 712.30,104.97 Q719.56,104.07 726.80,104.07 Q745.74,104.07 754.13,111.53 Q762.56,118.99 762.56,135.81 Z M807.79,85.87 L807.79,105.75 L830.87,105.75 L830.87,121.75 L807.79,121.75 L807.79,151.43 Q807.79,156.31 809.73,158.03 Q811.67,159.75 817.43,159.75 L828.93,159.75 L828.93,175.75 L809.73,175.75 Q796.49,175.75 790.95,170.23 Q785.43,164.69 785.43,151.43 L785.43,121.75 L774.29,121.75 L774.29,105.75 L785.43,105.75 L785.43,85.87 L807.79,85.87 Z M877.86,120.07 Q870.42,120.07 866.52,125.41 Q862.62,130.75 862.62,140.81 Q862.62,150.87 866.52,156.23 Q870.42,161.57 877.86,161.57 Q885.18,161.57 889.04,156.23 Q892.92,150.87 892.92,140.81 Q892.92,130.75 889.04,125.41 Q885.18,120.07 877.86,120.07 Z M877.86,104.07 Q895.92,104.07 906.08,113.83 Q916.24,123.57 916.24,140.81 Q916.24,158.07 906.08,167.83 Q895.92,177.57 877.86,177.57 Q859.74,177.57 849.52,167.83 Q839.30,158.07 839.30,140.81 Q839.30,123.57 849.52,113.83 Q859.74,104.07 877.86,104.07 Z M984.50,124.81 Q981.56,123.43 978.63,122.79 Q975.74,122.13 972.80,122.13 Q964.17,122.13 959.52,127.67 Q954.86,133.19 954.86,143.49 L954.86,175.75 L932.50,175.75 L932.50,105.75 L954.86,105.75 L954.86,117.25 Q959.17,110.37 964.75,107.23 Q970.36,104.07 978.17,104.07 Q979.30,104.07 980.60,104.17 Q981.91,104.25 984.41,104.57 L984.50,124.81 Z" fill="#6F6F6F" fill-rule="nonzero"/>
</svg>